<?xml version="1.0" encoding="UTF-8"?>
<!-- Created with Inkscape (http://www.inkscape.org/) -->
<svg width="172.13mm" height="172.13mm" version="1.1" viewBox="0 0 172.13 172.13" xmlns="http://www.w3.org/2000/svg" xmlns:cc="http://creativecommons.org/ns#" xmlns:dc="http://purl.org/dc/elements/1.1/" xmlns:rdf="http://www.w3.org/1999/02/22-rdf-syntax-ns#">
 <metadata>
  <rdf:RDF>
   <cc:Work rdf:about="">
    <dc:format>image/svg+xml</dc:format>
    <dc:type rdf:resource="http://purl.org/dc/dcmitype/StillImage"/>
    <dc:title/>
   </cc:Work>
  </rdf:RDF>
 </metadata>
 <g transform="translate(-20.352 -6.7064)">
  <g transform="translate(.52917 -12.529)">
   <g>
    <g stroke-width=".42607">
     <path d="m19.823 60.138v-40.903h82.232v7.2385l-74.775 0.21769-0.10886 37.175-0.10886 37.175h-7.2385z" fill="#6ac7b3"/>
     <path d="m184.29 63.76v-37.281h-74.562v-7.2432h82.232v81.806h-7.6693z" fill="#88c240"/>
     <path d="m109.72 187.53v-3.8346h74.562v-74.562h7.6693v82.232h-82.232z" fill="#46c3e6"/>
     <path d="m19.823 150.25v-41.116h7.2432v74.562h74.988v7.6693h-82.232z" fill="#e65d25"/>
    </g>
    <path d="m62.54 145.83c-1.1934-0.51017-2.0102-1.5426-3.3957-4.292-0.84874-1.6842-0.9275-2.1402-0.7875-4.5585 0.13674-2.3621 0.28806-2.8628 1.2511-4.1402 0.60257-0.7992 1.4796-2.226 1.9488-3.1707 1.7058-3.4338 4.1132-6.8704 4.8127-6.8704 0.52558 0 0.71018-0.29923 0.84764-1.3741 0.19404-1.5172 1.0059-3.08 2.5724-4.9519 1.5792-1.887 2.4061-3.1466 3.5384-5.3896 0.57058-1.1303 1.4892-2.5122 2.0415-3.0707 0.55223-0.55859 1.1941-1.4961 1.4264-2.0833 0.23231-0.58724 1.031-1.662 1.775-2.3885s1.3526-1.5208 1.3526-1.7653c0-0.24452 0.50637-1.0247 1.1253-1.7338 0.6189-0.70904 2.2494-2.7791 3.6234-4.6002 1.374-1.821 2.7999-3.5841 3.1687-3.9178 0.36882-0.33378 0.67058-0.88103 0.67058-1.2161 0-0.76563 0.91329-1.707 1.4699-1.5151 0.24619 0.08489 0.8984-0.85425 1.5789-2.2735 0.89736-1.8715 1.4221-2.5434 2.3213-2.9722 0.79623-0.37969 1.1066-0.7281 0.98634-1.1071-0.18605-0.58618 1.6576-3.783 2.1816-3.783 0.31088 0 1.7675-3.0858 1.7675-3.7444 0-0.75727-1.248-0.98812-3.7787-0.69895-3.6965 0.42238-5.799 0.91622-7.0544 1.6569-0.6226 0.36734-1.4645 0.57758-1.945 0.48572-0.56242-0.10752-1.409 0.19425-2.518 0.89761-1.2401 0.78648-2.0765 1.0596-3.2447 1.0596-0.86565 0-1.8801 0.21448-2.2544 0.47662-0.37426 0.26214-1.3533 0.67822-2.1757 0.92462-0.8224 0.2464-1.6699 0.72754-1.8832 1.0692-0.23159 0.37083-0.79572 0.62122-1.3996 0.62122-0.55642 0-1.3308 0.29669-1.7208 0.65931-0.39005 0.36262-2.2982 1.4571-4.2404 2.4322-3.9047 1.9604-6.8845 4.4415-8.6632 7.2134-0.65376 1.0188-1.9017 2.2523-3.1201 3.0839-1.9689 1.344-2.0788 1.3752-3.6212 1.0295-2.219-0.4973-2.7496-0.84637-3.1851-2.0957-0.96401-2.7654-0.1212-5.3124 2.2823-6.8973 1.837-1.2113 9.8057-4.9747 11.15-5.2659 0.62194-0.1347 1.5173-0.50951 1.9896-0.8329 0.47234-0.32339 2.9457-1.6314 5.4963-2.9068 2.5506-1.2753 4.8694-2.5155 5.1528-2.7559 0.2834-0.24043 1.9065-0.9324 3.607-1.5377 1.7004-0.60531 3.71-1.4586 4.4658-1.8963 0.75574-0.43765 1.8956-0.90823 2.5329-1.0457 0.63737-0.1375 1.6422-0.53072 2.2329-0.87382 0.59071-0.3431 1.97-0.8807 3.065-1.1947 1.5851-0.45448 2.0945-0.48494 2.4988-0.14942 0.27929 0.23179 0.54271 0.36076 0.58538 0.2866 0.04266-0.07416 0.24808-0.444 0.45647-0.82187 0.27788-0.50387 0.87318-0.74282 2.2329-0.89628 1.0197-0.11508 2.3291-0.40921 2.9098-0.65361 1.1963-0.50346 2.5718-0.26965 3.4234 0.58189 0.54006 0.54006 0.59739 0.54003 0.8999-6.04e-4 0.39606-0.70772 1.9464-0.75301 2.9005-0.08474 0.3868 0.27092 1.3716 0.54144 2.1884 0.60116 0.90024 0.06581 1.5792 0.31152 1.7239 0.62386 1.4645 3.1616 1.9634 4.1117 2.6636 5.0722 0.56916 0.78078 0.74685 1.355 0.58464 1.8894-0.82735 2.7255-7.3631 13.362-8.4288 13.717-0.20194 0.06731-0.5763 1.022-0.83191 2.1216-0.49311 2.1213-1.0923 3.0036-2.6716 3.9341-0.62595 0.3688-1.8274 2.055-3.3471 4.6975-1.6729 2.9089-2.7176 4.3439-3.5495 4.8754-1.1853 0.7573-3.1691 4.1349-2.9009 4.9392 0.07265 0.21793 0.74464-0.25236 1.4933-1.0451 3.235-3.4254 9.8754-9.7593 13.122-12.517 1.9341-1.6425 3.9827-3.6639 4.5524-4.4919 0.56969-0.82802 1.3367-1.601 1.7045-1.7177s0.76851-0.52663 0.89046-0.91088c0.12196-0.38425 0.6618-0.85204 1.1996-1.0395 0.69489-0.24224 1.0086-0.60661 1.084-1.259 0.0803-0.69438 0.32026-0.94307 0.98473-1.0205 0.58849-0.06853 1.3258-0.68698 2.2329-1.8729 1.9455-2.5435 5.7012-6.2731 6.9865-6.9377 0.60543-0.31308 1.4022-0.47357 1.7707-0.35663 0.45589 0.14469 0.66987 0.05198 0.66987-0.29024 0-0.6534 2.0396-2.4349 3.838-3.3524 0.77786-0.39684 2.4353-1.4541 3.6833-2.3495 1.248-0.89539 4.124-2.616 6.3912-3.8236l4.1222-2.1956 9.3018-0.0174 1.9959 1.2023c2.5084 1.511 3.8498 3.0169 4.3534 4.8871 0.54641 2.0292 0.23652 4.0865-0.96136 6.3825-0.56126 1.0758-1.7913 3.4245-2.7335 5.2194-0.94216 1.7949-1.8946 3.814-2.1165 4.4868s-1.1716 2.1319-2.1106 3.2424-1.8817 2.5695-2.0952 3.2424c-0.45825 1.4445-2.767 6.1833-3.6584 7.5091-0.34326 0.51051-0.89404 1.5225-1.2239 2.249-0.3299 0.7264-1.0489 1.8858-1.5977 2.5764-0.54885 0.69062-1.4696 2.452-2.0462 3.9143-0.57653 1.4622-1.5004 3.4718-2.0531 4.4658s-1.8836 3.7714-2.9575 6.172c-1.074 2.4007-2.1698 4.5451-2.4353 4.7655-0.26547 0.22032-0.48268 0.77299-0.48268 1.2282s-0.30844 1.7432-0.68542 2.8622c-0.43052 1.278-0.71795 3.1583-0.77291 5.0561l-0.0875 3.0215 1.892-5e-3c1.8333-5e-3 1.9772-0.0767 4.6375-2.3245 6.4973-5.4896 10.907-8.9185 11.766-9.1482 0.63319-0.16934 1.2714-0.84436 2.0368-2.1542 1.5553-2.6617 3.2265-4.0611 4.842-4.0544 1.8042 7e-3 2.3618 0.42618 1.9044 1.4301-0.22016 0.48322-0.24753 1.1106-0.0694 1.592 0.46774 1.2644-0.20735 3.4754-1.3913 4.5568-0.58121 0.53085-1.0567 1.121-1.0567 1.3116 0 0.52438-3.1836 2.6104-3.8222 2.5044-0.32705-0.0543-0.83639 0.37617-1.2284 1.0381-0.85893 1.4505-6.0516 5.1714-9.3773 6.7194-1.417 0.65958-2.9629 1.4687-3.4352 1.798s-1.3998 0.67698-2.0611 0.77252c-0.66127 0.0956-2.4711 0.36135-4.0219 0.59066l-2.8196 0.41694-2.8139-1.4917c-5.7923-3.0705-7.546-5.6125-7.7836-11.282l-0.13673-3.2634 1.7488-3.5106c0.96185-1.9309 2.0456-3.6695 2.4084-3.8636 0.4445-0.23789 0.65828-0.71733 0.65564-1.4704-8e-3 -2.183 0.52342-3.5622 2.6129-6.7855 1.1635-1.7949 2.9111-4.9296 3.8835-6.9661 0.97238-2.0365 2.0685-4.1248 2.4359-4.6407 0.36736-0.5159 0.83493-1.5549 1.039-2.3089 0.20412-0.75401 1.0665-2.2984 1.9164-3.432 0.84989-1.1336 2.0515-2.9619 2.6702-4.0628s1.6238-2.724 2.2334-3.607c1.8775-2.719 3.4541-5.658 3.8594-7.1945 0.21283-0.80686 0.76662-2.0265 1.2306-2.7102 0.90283-1.3304 1.0284-2.0432 0.50477-2.8649-0.27632-0.43362-0.99686-0.1731-4.5464 1.6438-2.3199 1.1875-4.381 2.1536-4.5802 2.147-0.55451-0.01849-6.3658 3.7153-7.602 4.8843-0.6547 0.61912-1.3048 0.9534-1.6194 0.83269-0.33426-0.12827-0.78341 0.16041-1.2339 0.79304-0.38957 0.5471-1.0152 1.0921-1.3902 1.2111-0.37504 0.11903-0.9153 0.66781-1.2006 1.2195-0.38723 0.74882-0.91082 1.1018-2.0656 1.3926-1.2796 0.3222-1.8002 0.72267-3.012 2.3171-1.091 1.4354-1.8564 2.0705-2.9975 2.4873-1.0705 0.391-1.6654 0.8584-1.9737 1.5507-1.0494 2.3565-1.3573 2.7446-2.6938 3.3956-1.967 0.95804-2.4897 1.4612-3.2925 3.1692-0.38526 0.81959-1.029 1.658-1.4304 1.8632-0.40148 0.20516-1.8141 1.4756-3.1392 2.8231-1.3251 1.3476-3.2574 3.2399-4.294 4.2052-3.0688 2.8576-10.705 10.794-12.525 13.016-2.5853 3.1578-5.0808 5.6654-5.6653 5.6928-0.53016 0.0249-4.3229 4.3628-7.5397 8.6235-0.9522 1.2612-2.0345 2.3893-2.405 2.5069-0.37055 0.1176-0.84195 0.72356-1.0476 1.3466-0.20561 0.623-0.76939 1.3444-1.2528 1.6032s-1.1158 0.93965-1.4052 1.5131c-1.4516 2.8767-4.305 4.3987-6.493 3.4633z" fill="#fbb217" stroke-width=".34352"/>
   </g>
  </g>
 </g>
</svg>
