<svg version="1" xmlns="http://www.w3.org/2000/svg" width="933.333" height="933.333" viewBox="0 0 700.000000 700.000000"><path d="M0 166.3v166.4l14.7-.1 14.7-.1.3-111c.2-61.1.5-129 .6-151l.2-40 19.5-.2c10.7-.1 78.7-.3 151-.4 72.3-.2 132-.6 132.5-1 .6-.5 1-6.4 1-14.6V.5L167.2.2 0 0v166.3zM365.5 14c.1 7.6.4 14.3.9 14.7.4.4 68.5.8 151.4.8h150.7l.3 151.6.2 151.6h31V0H365.5v14z"/><path d="M508.3 185c-2.7 1.4-10 5.5-16.3 9-6.3 3.5-16 9.3-21.5 13-5.5 3.6-12.5 8.1-15.6 9.8-5.5 3.1-14.3 10.6-15 12.8-.2.7-2.1 1.4-4.2 1.7-2.1.3-5.6 1.7-7.9 3.2-4.7 3.1-17.7 16.2-25.8 25.8-3.4 4-6.8 7-8.8 7.7-2.2.8-3.7 2.2-4.6 4.5-.8 1.8-2.5 4.1-3.8 4.9-2.7 1.8-10.8 9.6-20.9 20.2-3.6 3.8-8.5 8.7-11 10.9-16.3 14.7-30.5 28-44.1 41.5-8.7 8.5-16.2 15.6-16.8 15.8-2.1.7-.9-3.6 2.6-9.3 1.9-3.3 6.1-8.7 9.2-12 3.2-3.3 9.3-11.9 13.7-19 5.3-8.6 10.2-15.2 14.6-19.5 5.7-5.7 6.9-7.5 9.1-14.1 1.8-5.2 4.1-9.5 7.4-13.7 9.2-11.4 28.9-44.9 30-51 .5-2.6.1-4.5-1.7-7.6-1.2-2.2-4.4-8.2-6.9-13.1l-4.7-9-7.9-2.1c-4.3-1.2-9-2.5-10.4-3.1-1.4-.5-3.1-.8-3.7-.7-.7.1-1.7.2-2.2.3-.5 0-1.7.8-2.5 1.7-1.5 1.4-1.9 1.4-5-.5-3.9-2.4-9.1-3.2-12.6-1.9-2.4.9-9.5 2.5-15.5 3.4-1.7.3-4.2 1.8-5.7 3.6-2.3 2.6-3 2.9-4.2 1.9-2.2-1.9-8.4-.7-18.4 3.5-4.8 1.9-11.1 4.4-13.9 5.4-2.9 1-8.1 3.2-11.6 4.9-3.5 1.7-10.6 4.6-15.8 6.6-5.2 2-14.8 6.5-21.4 9.9-6.6 3.5-16.5 8.7-22 11.6-5.5 2.9-11.8 6.3-14 7.5-2.2 1.2-5.8 2.8-8 3.5-9.5 3-39.9 17.5-47.1 22.4-7.5 5-11.1 13.2-9.9 22.1 1.2 9.6 4.7 12.5 16.8 14.1 4.3.6 5 .4 10.9-3.9 6-4.2 11-9.3 16.8-16.8 6.9-9 17.1-17.2 30.7-24.5 4.8-2.6 11.5-6.4 14.8-8.5 3.3-2.1 7.4-4.1 9-4.5 3.4-.8 8.7-3.3 9.5-4.4 1.1-1.7 18.5-8.1 23.3-8.6 2.9-.3 8.5-2.1 12.7-4.1 4.1-1.9 9.3-3.8 11.4-4 2.2-.2 6.6-1.5 9.9-2.9 7.7-3.3 16.8-5 31-5.9 7.3-.5 10.7.5 10.7 3.3 0 2.6-5.5 13.5-7.9 15.6-2.8 2.5-6.7 9.4-7.6 13.4-.4 2.2-1.9 4.1-4.8 6.1s-5.4 5.2-8.7 11.2c-3.5 6.2-5.5 8.8-7.8 9.8-2.1 1-3.5 2.6-4.3 4.9-.9 2.7-7 11.1-16.2 22.2-6.6 8-16.7 21.3-18.7 24.5-1.3 2.2-4.5 6.5-7 9.5s-5.8 7.6-7.3 10.2c-1.5 2.6-3.9 6-5.2 7.4-1.4 1.5-5.3 7.4-8.7 13.3-3.4 5.8-9.2 14.6-12.9 19.6-7.7 10.4-9.1 13-11 20.3-1 4-2 5.6-4.3 7-1.7 1-4.4 3.8-6.1 6.3-1.6 2.4-3.2 4.6-3.5 4.9-.6.6-1.9 2.8-7.8 13.5-2.4 4.4-6.1 10.5-8.2 13.5-4.4 6.5-5.8 10.5-6.3 18.5-.6 10.7 1 16.2 8.7 28.3 5.2 8.4 13.3 11 21.4 7.1 4.5-2.2 12.2-9.4 12.2-11.5 0-.6 2.3-3.3 5.1-6s5.9-6.6 7-8.6c1-2.1 3.2-4.7 4.9-5.9 1.6-1.2 5.3-5.2 8.2-8.8 17.9-22.4 31.2-37.1 33.6-37.1.9 0 12.4-11.7 18.1-18.5 10.2-12 20.3-22.7 45.6-48 15.5-15.4 31.2-30.8 35.1-34.2 3.9-3.5 8-8.2 9.2-10.5 2.5-5.1 6-8.6 12.3-12.2 5.7-3.2 7-4.7 10.7-11.6 2.4-4.5 4-6.1 8.6-8.6 6.4-3.4 6.3-3.3 14.9-12.4 4.9-5.2 7.2-6.8 10.9-7.7 3.3-.9 5.3-2.1 6.9-4.5 1.3-1.8 3.2-4 4.4-4.8 1.1-.8 3.9-3.1 6.1-5.2 2.3-2.1 4.8-3.8 5.7-3.8.8 0 4.2-2 7.5-4.5 11.5-8.4 25.3-17.2 28.2-18 .3 0 4.6-2 9.5-4.4 22.2-10.7 27.9-13 29.2-11.9 2.2 1.8 1.5 5.5-2.7 13.7-2.2 4.3-4 8.2-4 8.6 0 1.5-5.6 13.2-9 18.7-10.8 17.6-20.1 32.3-25.2 39.9-3.2 4.8-7 11.3-8.4 14.5-1.4 3.3-3.9 8.4-5.5 11.4s-5.9 11.3-9.5 18.3c-3.6 7.1-10.1 18.9-14.5 26.4-9.8 16.3-10.8 18.7-11.6 26.6-.5 5-1.2 6.9-3.7 9.9-1.7 2-6.1 9.4-9.7 16.5-5.5 10.6-6.6 13.5-6.3 16.8.1 2.2.5 7.6.8 12 1.1 17.3 6.5 26.9 20.4 36.3 6.5 4.5 22.7 13.3 23.3 12.8.2-.2 2.7-.7 5.4-1 2.8-.4 7.9-1.1 11.5-1.7 3.6-.5 7.9-1.2 9.5-1.4 4.5-.7 28.5-13.1 40.3-20.9 5.8-3.8 13.8-10.2 17.9-14.2 4.1-4.1 8.1-7.4 8.9-7.4 5.1 0 20.1-14.6 23.4-22.8 1-2.7 1.3-7.9.8-13.7-.1-.6.1-2.2.5-3.5.9-3.8-.6-5.3-5.9-5.5-8-.4-13 3.3-21.6 15.9-3.6 5.3-6.2 7.8-11 10.7-5.6 3.3-14.7 10.3-28.9 22.1-27.4 22.7-27.5 22.8-36.9 22.8h-6.1l.5-10.5c.6-9.8 1.6-15.6 5-29.8.8-3.1 1.2-5.7 1-5.7-.2 0 .8-1.9 2.3-4.3 1.4-2.3 6-11.2 10.1-19.7s9.6-20.1 12.3-25.7c2.7-5.6 4.9-10.5 4.9-10.8 0-1.3 10.2-20.9 12.4-23.8 3.4-4.5 10.5-17.8 18.7-34.7 8.9-18.6 9.4-19.4 14.8-26.4 4.6-6.2 28-51.3 31-60.1 3.5-10.1 2-20.6-4-27.8-2.9-3.5-13-11.7-14.4-11.7-.3 0-1.8-.8-3.2-1.8-2.3-1.5-5.4-1.7-22-1.8-19.1-.1-19.3-.1-24 2.6z"/><path d="M1 365.8c-.7.3-1 56.9-1 167.3V700h334.5v-15.3l-.1-15.2-151.9-.3c-93.4-.1-152.1-.6-152.5-1.1-.3-.6-.5-68.6-.5-151.1 0-82.6-.2-150.5-.5-150.9-.5-.6-26.1-.9-28-.3zM668.8 517l-.3 151.5-151.5.5-151.5.5v30l167.3.3 167.2.2-.2-167.2-.3-167.2-15.2-.1H669l-.2 151.5z"/></svg>